<svg xmlns="http://www.w3.org/2000/svg" version="1.1" xmlns:xlink="http://www.w3.org/1999/xlink" xmlns:svgjs="http://svgjs.dev/svgjs" viewBox="0 0 800 800"><defs><filter id="bbburst-blur-1" x="-100%" y="-100%" width="400%" height="400%"><feGaussianBlur in="SourceGraphic" stdDeviation="1"></feGaussianBlur></filter><filter id="bbburst-blur-2" x="-100%" y="-100%" width="400%" height="400%"><feGaussianBlur in="SourceGraphic" stdDeviation="2"></feGaussianBlur></filter><filter id="bbburst-blur-3" x="-100%" y="-100%" width="400%" height="400%"><feGaussianBlur in="SourceGraphic" stdDeviation="4"></feGaussianBlur></filter><filter id="bbburst-blur-4" x="-100%" y="-100%" width="400%" height="400%"><feGaussianBlur in="SourceGraphic" stdDeviation="12"></feGaussianBlur></filter><symbol id="bbburst-shape-1" viewBox="0 0 194 167"><path d="m97 0 96.129 166.5H.871L97 0Z"></path></symbol><symbol id="bbburst-shape-4" viewBox="0 0 149 143"><path d="M71.647 2.781c.898-2.764 4.808-2.764 5.706 0l15.445 47.534a3 3 0 0 0 2.853 2.073h49.98c2.906 0 4.115 3.719 1.764 5.427L106.96 87.193a2.999 2.999 0 0 0-1.09 3.354l15.445 47.534c.898 2.764-2.266 5.062-4.617 3.354l-40.435-29.378a3 3 0 0 0-3.526 0l-40.435 29.378c-2.351 1.708-5.515-.59-4.617-3.354L43.13 90.547a3 3 0 0 0-1.09-3.354L1.605 57.815c-2.35-1.708-1.142-5.427 1.764-5.427h49.98a3 3 0 0 0 2.853-2.073L71.647 2.781Z"></path></symbol><symbol id="bbburst-shape-6" viewBox="0 0 133 116"><path d="M59.7487 10.2513c-13.6683-13.66839-35.8291-13.66839-49.4974 0-13.66839 13.6683-13.66839 35.8291 0 49.4974l49.4974-49.4974ZM66.5 66.5 41.7513 91.2487 66.5 115.997l24.7487-24.7483L66.5 66.5Zm56.249-6.7513c13.668-13.6683 13.668-35.8291 0-49.4974-13.669-13.66839-35.8294-13.66839-49.4977 0l49.4977 49.4974Zm-112.4977 0 31.5 31.5 49.4974-49.4974-31.5-31.5-49.4974 49.4974Zm80.9974 31.5 31.5003-31.5-49.4977-49.4974-31.5 31.5 49.4974 49.4974Z"></path></symbol><symbol id="bbburst-shape-8" viewBox="0 0 87 168"><path d="m12 12 31.2546 18.0749c16.4102 9.4902 20.014 31.6325 7.4603 45.8369L36.3296 92.1884c-12.5684 14.2206-8.9394 36.3916 7.5068 45.8636L75 156" stroke-width="14" stroke-linecap="round" stroke-linejoin="round"></path></symbol><symbol id="bbburst-shape-10" viewBox="0 0 145 145"><circle cx="72.5" cy="72.5" r="61.5" fill="none" stroke-width="22"></circle></symbol></defs><use xlink:href="#bbburst-shape-6" width="31.672269743165756" opacity="0.3432698662758973" transform="matrix(0.9997622728286975,0.021803619616868292,-0.021803619616868292,0.9997622728286975,685.5743341375709,40.64583555779291)" fill="#ffbd9b" filter="url(#bbburst-blur-2)"></use><use xlink:href="#bbburst-shape-1" width="19.28599511843174" opacity="0.75484136823802" transform="matrix(0.9525164091391513,-0.30448725805960575,0.30448725805960575,0.9525164091391513,321.1625590431062,119.17853009061793)" fill="#2c2891" filter="url(#bbburst-blur-1)"></use><use xlink:href="#bbburst-shape-1" width="49.51783496307779" opacity="0.19911148234098386" transform="matrix(1.1337212632841727,0.5264751629254123,-0.5264751629254123,1.1337212632841727,336.97674175257885,-330.2935978054119)" fill="#ffa6d5" filter="url(#bbburst-blur-3)"></use><use xlink:href="#bbburst-shape-6" width="28.70124898346619" opacity="0.1569492867713802" transform="matrix(1.1703603604455188,0.43904057522948337,-0.43904057522948337,1.1703603604455188,663.8023208971804,290.1138229741964)" fill="#00a19d" filter="url(#bbburst-blur-3)"></use><use xlink:href="#bbburst-shape-6" width="32.408381303099986" opacity="0.4398283728355835" transform="matrix(0.9999821583120496,0.005973529741696424,-0.005973529741696424,0.9999821583120496,618.2490440469384,-98.52425047827131)" fill="#2c2891" filter="url(#bbburst-blur-2)"></use><use xlink:href="#bbburst-shape-1" width="39.66288151985292" opacity="0.27118929333420116" transform="matrix(0.9006399131425759,0.8668031765369422,-0.8668031765369422,0.9006399131425759,441.1256190073795,180.06497963258187)" fill="#ffbd9b" filter="url(#bbburst-blur-3)"></use><use xlink:href="#bbburst-shape-4" width="35.6060630778071" opacity="0.09232140706391201" transform="matrix(1.5261597808721756,-0.8563505843100667,0.8563505843100667,1.5261597808721756,-163.66616692549727,-554.6216615808805)" fill="#ffa6d5" filter="url(#bbburst-blur-4)"></use><use xlink:href="#bbburst-shape-8" width="18.578381237143425" opacity="0.8103659114744017" transform="matrix(0.8770134345963306,0.4804658526238339,-0.4804658526238339,0.8770134345963306,549.0495605155359,-33.10050395305916)" fill="none" stroke="#ffa6d5"></use><use xlink:href="#bbburst-shape-10" width="35.44730083002678" opacity="0.4093739781134842" transform="matrix(0.9842968835015192,0.17652094813136654,-0.17652094813136654,0.9842968835015192,312.44181340528644,-222.31896988386336)" fill="none" stroke="#00a19d" filter="url(#bbburst-blur-2)"></use><use xlink:href="#bbburst-shape-4" width="34.4863572753291" opacity="0.16973835714085517" transform="matrix(0.883885353959757,0.8838815990026239,-0.8838815990026239,0.883885353959757,633.6446860151098,389.89791296394026)" fill="#2c2891" filter="url(#bbburst-blur-3)"></use><use xlink:href="#bbburst-shape-4" width="15.57491346828983" opacity="0.7887775299523117" transform="matrix(0.9261199088441381,-0.3772292597910791,0.3772292597910791,0.9261199088441381,195.37407030289523,115.38657572857835)" fill="#ffa6d5"></use><use xlink:href="#bbburst-shape-8" width="19.766820504313824" opacity="0.7516843506031479" transform="matrix(0.7244534127468346,-0.6893237648300431,0.6893237648300431,0.7244534127468346,228.52145985022713,125.6260756427044)" fill="none" stroke="#00a19d" filter="url(#bbburst-blur-1)"></use><use xlink:href="#bbburst-shape-10" width="37.4971538912575" opacity="-0.08314530741961623" transform="matrix(1.6233635206645534,0.6535984086391171,-0.6535984086391171,1.6233635206645534,981.1255444821647,77.49988046246278)" fill="none" stroke="#ffa6d5" filter="url(#bbburst-blur-4)"></use><use xlink:href="#bbburst-shape-6" width="27.855198761348714" opacity="0.5452263236508579" transform="matrix(0.8811139241660666,0.47290406282952885,-0.47290406282952885,0.8811139241660666,612.480665117341,-160.5612428559308)" fill="#00a19d" filter="url(#bbburst-blur-2)"></use><use xlink:href="#bbburst-shape-8" width="10.230145205332388" opacity="0.9262701877271252" transform="matrix(0.9989424083970092,-0.04597895938342776,0.04597895938342776,0.9989424083970092,397.02888943782233,-25.405579068721693)" fill="none" stroke="#ff5c58"></use><use xlink:href="#bbburst-shape-6" width="36.85955599332749" opacity="0.22896805339866166" transform="matrix(1.2133514793291036,-0.300463288289728,0.300463288289728,1.2133514793291036,425.02819097615657,224.0111911818983)" fill="#ffbd9b" filter="url(#bbburst-blur-3)"></use><use xlink:href="#bbburst-shape-4" width="20.196840273814345" opacity="0.6804660779449825" transform="matrix(0.9997375283025671,-0.022910139752383825,0.022910139752383825,0.9997375283025671,428.12957375058073,-135.40217471763822)" fill="#00a19d" filter="url(#bbburst-blur-1)"></use><use xlink:href="#bbburst-shape-10" width="34.98405768920507" opacity="0.5186350685911804" transform="matrix(0.8477797454317153,0.5303484733981384,-0.5303484733981384,0.8477797454317153,623.2663395834485,266.6646722546369)" fill="none" stroke="#ffa6d5" filter="url(#bbburst-blur-2)"></use><use xlink:href="#bbburst-shape-1" width="17.309794646181814" opacity="0.7721342658893027" transform="matrix(0.9997318620501542,-0.02315607915281548,0.02315607915281548,0.9997318620501542,445.3288704680986,-80.38336298916488)" fill="#ffa6d5" filter="url(#bbburst-blur-1)"></use><use xlink:href="#bbburst-shape-6" width="11.482409450043722" opacity="0.9531886431509886" transform="matrix(0.9701795126051252,0.24238752715699202,-0.24238752715699202,0.9701795126051252,477.8104099247896,-5.571346806260294)" fill="#ffbd9b"></use><use xlink:href="#bbburst-shape-10" width="13.739842760258473" opacity="0.8635323034801554" transform="matrix(0.795920911677279,-0.605400613110698,0.605400613110698,0.795920911677279,145.06458431576337,146.76484189296212)" fill="none" stroke="#00a19d"></use><use xlink:href="#bbburst-shape-4" width="30.22024216769643" opacity="0.279721563008816" transform="matrix(0.9015228496140458,-0.8658848373910764,0.8658848373910764,0.9015228496140458,-113.31066027491718,338.04858303186364)" fill="#ff5c58" filter="url(#bbburst-blur-3)"></use><use xlink:href="#bbburst-shape-10" width="20.7274171884281" opacity="0.5760744373530515" transform="matrix(0.8185103520466224,-0.5744917785247359,0.5744917785247359,0.8185103520466224,117.59431400488074,-107.04321978503592)" fill="none" stroke="#00a19d" filter="url(#bbburst-blur-1)"></use><use xlink:href="#bbburst-shape-10" width="21.782779556873322" opacity="0.7641050540733345" transform="matrix(0.8945274741488649,-0.4470129729581143,0.4470129729581143,0.8945274741488649,300.1457063536996,105.38303062256904)" fill="none" stroke="#00a19d" filter="url(#bbburst-blur-1)"></use><use xlink:href="#bbburst-shape-10" width="34.19539938080184" opacity="0.3891688876135303" transform="matrix(0.7449016240749773,-0.6671743178888566,0.6671743178888566,0.7449016240749773,-144.0015790429621,188.6170045411058)" fill="none" stroke="#00a19d" filter="url(#bbburst-blur-2)"></use><use xlink:href="#bbburst-shape-6" width="44.912338056951015" opacity="0.15928256173921052" transform="matrix(1.223334448478075,-0.25681282516035664,0.25681282516035664,1.223334448478075,623.0648813537937,-218.97165820058632)" fill="#ff5c58" filter="url(#bbburst-blur-3)"></use><use xlink:href="#bbburst-shape-10" width="18.629458305703004" opacity="0.7057693796046557" transform="matrix(0.9928985967796031,0.11896376134392823,-0.11896376134392823,0.9928985967796031,434.91831643173214,-130.62719520290625)" fill="none" stroke="#00a19d" filter="url(#bbburst-blur-1)"></use><use xlink:href="#bbburst-shape-10" width="23.4079376459744" opacity="0.572431778386557" transform="matrix(0.8699888352705274,0.4930714213018548,-0.4930714213018548,0.8699888352705274,475.05970383994656,-110.22396360368296)" fill="none" stroke="#00a19d" filter="url(#bbburst-blur-1)"></use><use xlink:href="#bbburst-shape-4" width="18.898859751366324" opacity="0.6785572410878955" transform="matrix(0.9886553876692706,0.1502016126162574,-0.1502016126162574,0.9886553876692706,587.0720473548006,-45.19493677876011)" fill="#00a19d" filter="url(#bbburst-blur-1)"></use><use xlink:href="#bbburst-shape-10" width="19.577641576233837" opacity="0.5367650565256195" transform="matrix(0.840310484158987,0.5421054235224814,-0.5421054235224814,0.840310484158987,721.8654252480775,233.57918302948713)" fill="none" stroke="#2c2891" filter="url(#bbburst-blur-2)"></use><use xlink:href="#bbburst-shape-10" width="28.217403400143013" opacity="0.5715493091487356" transform="matrix(0.9968617408439416,-0.07916229937025698,0.07916229937025698,0.9968617408439416,233.28099870040302,152.48689122423707)" fill="none" stroke="#ffa6d5" filter="url(#bbburst-blur-1)"></use><use xlink:href="#bbburst-shape-6" width="23.538076822254407" opacity="0.6895631367559607" transform="matrix(0.9966005948689654,0.08238479414809806,-0.08238479414809806,0.9966005948689654,366.53633533819414,128.93733485984387)" fill="#2c2891" filter="url(#bbburst-blur-1)"></use><use xlink:href="#bbburst-shape-6" width="30.32674654780508" opacity="0.5291616073703286" transform="matrix(0.9539467058061816,-0.29997613652011446,0.29997613652011446,0.9539467058061816,54.42028645507912,40.816732492941924)" fill="#ffa6d5" filter="url(#bbburst-blur-2)"></use><use xlink:href="#bbburst-shape-10" width="17.879495135418992" opacity="0.7081710439546833" transform="matrix(0.8501806887664427,-0.5264910221918482,0.5264910221918482,0.8501806887664427,88.14902166386645,-27.423359767277077)" fill="none" stroke="#00a19d" filter="url(#bbburst-blur-1)"></use><use xlink:href="#bbburst-shape-10" width="28.398550428670134" opacity="0.34013722430259474" transform="matrix(0.8492423644864148,-0.5280032257112862,0.5280032257112862,0.8492423644864148,227.91142330812275,360.2961687613028)" fill="none" stroke="#2c2891" filter="url(#bbburst-blur-2)"></use><use xlink:href="#bbburst-shape-10" width="41.601522447972116" opacity="0.18582161619070892" transform="matrix(1.2458606606801805,0.10164258049431957,-0.10164258049431957,1.2458606606801805,55.26999380335044,-29.647198361927735)" fill="none" stroke="#ffbd9b" filter="url(#bbburst-blur-3)"></use><use xlink:href="#bbburst-shape-10" width="36.19394668220069" opacity="0.4734177716778607" transform="matrix(0.7675571574823711,-0.6409805067219928,0.6409805067219928,0.7675571574823711,-96.16086262015224,32.95275488843305)" fill="none" stroke="#ffa6d5" filter="url(#bbburst-blur-2)"></use><use xlink:href="#bbburst-shape-10" width="33.92080746359513" opacity="0.06336834384339707" transform="matrix(1.7490091213242234,0.05888203057527941,-0.05888203057527941,1.7490091213242234,170.4350882833757,56.77333877507806)" fill="none" stroke="#00a19d" filter="url(#bbburst-blur-4)"></use><use xlink:href="#bbburst-shape-10" width="40.1304878593172" opacity="0.2687023418043235" transform="matrix(1.1684192569328875,0.44418063896167204,-0.44418063896167204,1.1684192569328875,714.84448058895,-363.5057696872109)" fill="none" stroke="#ff5c58" filter="url(#bbburst-blur-3)"></use><use xlink:href="#bbburst-shape-4" width="32.40970314039589" opacity="0.4363982286402682" transform="matrix(0.9105073229639994,0.4134929441102125,-0.4134929441102125,0.9105073229639994,689.4289904811782,-183.146492686607)" fill="#2c2891" filter="url(#bbburst-blur-2)"></use><use xlink:href="#bbburst-shape-4" width="18.29849829640535" opacity="0.752998045759704" transform="matrix(0.9300004096337651,0.3675584825317314,-0.3675584825317314,0.9300004096337651,433.23948893354725,-11.026212877580804)" fill="#2c2891" filter="url(#bbburst-blur-1)"></use><use xlink:href="#bbburst-shape-10" width="40.247175664858965" opacity="0.04603432289842868" transform="matrix(1.6835880474435054,-0.4775262155163473,0.4775262155163473,1.6835880474435054,531.3226310844996,-503.4035234677155)" fill="none" stroke="#ffa6d5" filter="url(#bbburst-blur-4)"></use><use xlink:href="#bbburst-shape-6" width="32.16219807134068" opacity="0.17799915602737282" transform="matrix(1.0263348480422545,0.713538211796735,-0.713538211796735,1.0263348480422545,306.5779512680713,-96.44907789845001)" fill="#00a19d" filter="url(#bbburst-blur-3)"></use><use xlink:href="#bbburst-shape-6" width="34.76688833204383" opacity="0.4550852146701746" transform="matrix(0.9143734590975923,-0.4048718035352719,0.4048718035352719,0.9143734590975923,109.3245484397649,258.999191734576)" fill="#ffa6d5" filter="url(#bbburst-blur-2)"></use><use xlink:href="#bbburst-shape-6" width="30.568443059461032" opacity="0.5072646446633091" transform="matrix(0.7909410954885997,-0.6118922972773018,0.6118922972773018,0.7909410954885997,317.2012633457227,230.35253003744043)" fill="#00a19d" filter="url(#bbburst-blur-2)"></use><use xlink:href="#bbburst-shape-4" width="32.30610206256466" opacity="0.5690677211142936" transform="matrix(0.8232464192971081,0.5676841843089255,-0.5676841843089255,0.8232464192971081,569.0782803486807,250.25762958207167)" fill="#ffa6d5" filter="url(#bbburst-blur-1)"></use><use xlink:href="#bbburst-shape-10" width="18.252546825502332" opacity="0.6392844303051634" transform="matrix(0.889456886103436,0.45701908905775407,-0.45701908905775407,0.889456886103436,632.2943789619651,191.8034033277081)" fill="none" stroke="#ff5c58" filter="url(#bbburst-blur-1)"></use><use xlink:href="#bbburst-shape-10" width="38.72866427024095" opacity="0.34190444349487026" transform="matrix(0.9964238348007384,-0.08449580723912142,0.08449580723912142,0.9964238348007384,51.16537791832617,-12.354747873450265)" fill="none" stroke="#00a19d" filter="url(#bbburst-blur-2)"></use><use xlink:href="#bbburst-shape-1" width="40.184973144232416" opacity="0.07094860962819738" transform="matrix(1.6119652720290303,-0.6812253384691254,0.6812253384691254,1.6119652720290303,-264.2330822910325,-17.417131705328188)" fill="#00a19d" filter="url(#bbburst-blur-4)"></use><use xlink:href="#bbburst-shape-1" width="27.342144132329828" opacity="0.6435282864072595" transform="matrix(0.7611635808111846,-0.6485599457619127,0.6485599457619127,0.7611635808111846,-28.259545541700618,79.42991655827905)" fill="#00a19d" filter="url(#bbburst-blur-1)"></use><use xlink:href="#bbburst-shape-8" width="38.54214567266651" opacity="0.07741823437340611" transform="matrix(1.460029718296593,-0.9647866197718393,0.9647866197718393,1.460029718296593,343.46510289170453,45.62933712624192)" fill="none" stroke="#ffa6d5" filter="url(#bbburst-blur-4)"></use><use xlink:href="#bbburst-shape-6" width="25.03721571359654" opacity="0.6568047132746543" transform="matrix(0.9959288574778047,-0.09014272484762513,0.09014272484762513,0.9959288574778047,204.4394374772518,49.996105080855216)" fill="#ffa6d5" filter="url(#bbburst-blur-1)"></use><use xlink:href="#bbburst-shape-10" width="20.45179099814313" opacity="0.6835481524968885" transform="matrix(0.7251426391473904,-0.688598687836651,0.688598687836651,0.7251426391473904,9.1616827046916,209.81901368801982)" fill="none" stroke="#ffa6d5" filter="url(#bbburst-blur-1)"></use><use xlink:href="#bbburst-shape-4" width="32.77140737314455" opacity="0.20265946258267398" transform="matrix(1.107856845101372,-0.5789241839498804,0.5789241839498804,1.107856845101372,113.03120092950002,-390.4866859431846)" fill="#ffa6d5" filter="url(#bbburst-blur-3)"></use><use xlink:href="#bbburst-shape-10" width="37.09112366789217" opacity="0.48513791214179036" transform="matrix(0.7780653237169366,0.6281833745247153,-0.6281833745247153,0.7780653237169366,855.9902768855333,152.31748135470923)" fill="none" stroke="#ffa6d5" filter="url(#bbburst-blur-2)"></use><use xlink:href="#bbburst-shape-4" width="29.44723058448721" opacity="0.19103401065113645" transform="matrix(1.0029572985795114,0.7460406538695386,-0.7460406538695386,1.0029572985795114,1047.6106773382055,-18.360909156329853)" fill="#2c2891" filter="url(#bbburst-blur-3)"></use><use xlink:href="#bbburst-shape-4" width="37.72719890110097" opacity="0.27142580825406726" transform="matrix(1.1626233463426177,0.45913718487952315,-0.45913718487952315,1.1626233463426177,442.2927494665661,-379.0083176283912)" fill="#ff5c58" filter="url(#bbburst-blur-3)"></use><use xlink:href="#bbburst-shape-6" width="38.34829627930033" opacity="0.17731568508316076" transform="matrix(1.2494586765601507,-0.036783359941106375,0.036783359941106375,1.2494586765601507,446.9823126212301,-459.2407749287121)" fill="#00a19d" filter="url(#bbburst-blur-3)"></use><use xlink:href="#bbburst-shape-10" width="44.39318535653035" opacity="-0.07882199465077422" transform="matrix(1.53533940480263,-0.839781466847361,0.839781466847361,1.53533940480263,-314.67799717268076,146.37075837349278)" fill="none" stroke="#ff5c58" filter="url(#bbburst-blur-4)"></use><use xlink:href="#bbburst-shape-10" width="41.839762734485134" opacity="0.38212284681352726" transform="matrix(0.8692927625592661,0.4942975753147889,-0.4942975753147889,0.8692927625592661,380.9217893007529,236.5244824003094)" fill="none" stroke="#2c2891" filter="url(#bbburst-blur-2)"></use><use xlink:href="#bbburst-shape-10" width="13.734120471446847" opacity="0.8994655489526715" transform="matrix(0.9932508942082643,0.11598560753163904,-0.11598560753163904,0.9932508942082643,426.51925502772076,-41.41298595174504)" fill="none" stroke="#ff5c58"></use><use xlink:href="#bbburst-shape-6" width="11.503883814580513" opacity="0.8596432132976333" transform="matrix(0.7099225596114603,0.7042797450975802,-0.7042797450975802,0.7099225596114603,719.4169669936671,64.62008731823585)" fill="#2c2891"></use><use xlink:href="#bbburst-shape-1" width="13.247239848972159" opacity="0.9782333529852503" transform="matrix(0.9858282155276891,-0.167757949050089,0.167757949050089,0.9858282155276891,335.78178385858575,9.509509616267337)" fill="#2c2891"></use><use xlink:href="#bbburst-shape-6" width="32.56231447662544" opacity="0.30992787437298863" transform="matrix(0.9237661623834372,-0.8421140523915849,0.8421140523915849,0.9237661623834372,349.5537505048624,-30.39387106154635)" fill="#00a19d" filter="url(#bbburst-blur-3)"></use><use xlink:href="#bbburst-shape-6" width="43.52682157486194" opacity="-0.0796865231253252" transform="matrix(1.7070407455626693,0.38537240818310564,-0.38537240818310564,1.7070407455626693,856.1706729005634,-639.0826930248364)" fill="#ffa6d5" filter="url(#bbburst-blur-4)"></use><use xlink:href="#bbburst-shape-6" width="10.810824754918707" opacity="0.9440577435145383" transform="matrix(0.9416293103177626,-0.3366515141069393,0.3366515141069393,0.9416293103177626,237.43990217486734,35.8194604910567)" fill="#ffa6d5"></use><use xlink:href="#bbburst-shape-4" width="12.177252810457732" opacity="0.8418523389433146" transform="matrix(0.9888352401393643,-0.14901297882575776,0.14901297882575776,0.9888352401393643,337.09810760720575,-65.73022567256481)" fill="#ff5c58"></use><use xlink:href="#bbburst-shape-4" width="10.587769147969736" opacity="0.9268504692626873" transform="matrix(0.77437212250374,0.6327304448887003,-0.6327304448887003,0.77437212250374,660.007935627401,117.92636875112902)" fill="#2c2891"></use><use xlink:href="#bbburst-shape-10" width="35.64242685287937" opacity="0.3884786940748458" transform="matrix(0.7849013818589237,0.6196207071716956,-0.6196207071716956,0.7849013818589237,588.3976544669387,346.400262052982)" fill="none" stroke="#ff5c58" filter="url(#bbburst-blur-2)"></use><use xlink:href="#bbburst-shape-1" width="18.219507230526435" opacity="0.8614972200741304" transform="matrix(0.9236185285096016,0.383312944985893,-0.383312944985893,0.9236185285096016,483.1021304248626,35.163646425514)" fill="#00a19d"></use><use xlink:href="#bbburst-shape-6" width="14.550547726314525" opacity="0.8804518633836588" transform="matrix(0.9990984314695777,0.04245378940718413,-0.04245378940718413,0.9990984314695777,373.9733897765409,40.26106266226128)" fill="#ff5c58"></use><use xlink:href="#bbburst-shape-6" width="26.160199827004078" opacity="0.6780347905407914" transform="matrix(0.9890155490517986,-0.14781151421242364,0.14781151421242364,0.9890155490517986,432.4430862248346,-94.0237873435999)" fill="#ffa6d5" filter="url(#bbburst-blur-1)"></use><use xlink:href="#bbburst-shape-4" width="31.96381705152204" opacity="0.4207984264721194" transform="matrix(0.9484640013460596,0.3168848973217592,-0.3168848973217592,0.9484640013460596,474.737941598417,-242.44531223457017)" fill="#2c2891" filter="url(#bbburst-blur-2)"></use><use xlink:href="#bbburst-shape-4" width="37.94010366879985" opacity="0.16880369551089436" transform="matrix(1.2459214073544158,0.10089522632905976,-0.10089522632905976,1.2459214073544158,153.06063051981235,165.06914584932122)" fill="#2c2891" filter="url(#bbburst-blur-3)"></use><use xlink:href="#bbburst-shape-1" width="18.770682998165213" opacity="0.7858673694090658" transform="matrix(0.9581491175741708,0.28626957311568735,-0.28626957311568735,0.9581491175741708,532.2764140404461,-78.49026509518745)" fill="#ffbd9b"></use><use xlink:href="#bbburst-shape-4" width="28.23107557460682" opacity="0.6571377583282546" transform="matrix(0.7704308146340095,-0.6375236151409425,0.6375236151409425,0.7704308146340095,241.363205108569,211.779839201787)" fill="#ffa6d5" filter="url(#bbburst-blur-1)"></use><use xlink:href="#bbburst-shape-4" width="39.55246530653428" opacity="0.18756879722790631" transform="matrix(1.17551711492508,0.4250406010232626,-0.4250406010232626,1.17551711492508,812.004516690617,-330.16717143325116)" fill="#00a19d" filter="url(#bbburst-blur-3)"></use><use xlink:href="#bbburst-shape-1" width="31.736324635267415" opacity="0.5458407921257226" transform="matrix(0.9183721990189482,0.395717707550599,-0.395717707550599,0.9183721990189482,705.7130173662326,-98.16556380704463)" fill="#ffa6d5" filter="url(#bbburst-blur-2)"></use><use xlink:href="#bbburst-shape-10" width="39.45708483126323" opacity="0.3264453177245318" transform="matrix(1.1483059117819978,0.49385578154610554,-0.49385578154610554,1.1483059117819978,837.1399828907136,82.89910579415482)" fill="none" stroke="#2c2891" filter="url(#bbburst-blur-3)"></use><use xlink:href="#bbburst-shape-6" width="49.90573890396277" opacity="-0.06570919198423408" transform="matrix(1.733994915918419,-0.23613900899486243,0.23613900899486243,1.733994915918419,-72.38196045844002,-631.2018510984365)" fill="#00a19d" filter="url(#bbburst-blur-4)"></use><use xlink:href="#bbburst-shape-1" width="21.527913498178084" opacity="0.5711094079803781" transform="matrix(0.922630985327095,-0.38568389247459345,0.38568389247459345,0.922630985327095,422.9263505897635,-12.153911930457184)" fill="#ffbd9b" filter="url(#bbburst-blur-1)"></use><use xlink:href="#bbburst-shape-8" width="28.44743683568047" opacity="0.3525415058177491" transform="matrix(0.9967533129305943,-0.08051604288515853,0.08051604288515853,0.9967533129305943,585.8790898197583,-173.46058796067442)" fill="none" stroke="#ffa6d5" filter="url(#bbburst-blur-2)"></use><use xlink:href="#bbburst-shape-10" width="37.51129601632077" opacity="0.07191273350746474" transform="matrix(1.7455143373069262,0.1252186018767276,-0.1252186018767276,1.7455143373069262,636.6246615276198,-655.9988366326752)" fill="none" stroke="#ff5c58" filter="url(#bbburst-blur-4)"></use><use xlink:href="#bbburst-shape-1" width="14.042128273471956" opacity="0.9119207186913812" transform="matrix(0.7271608278898705,-0.6864671371467962,0.6864671371467962,0.7271608278898705,159.76986826430465,117.80331583986157)" fill="#ffa6d5"></use><use xlink:href="#bbburst-shape-6" width="17.638047040065736" opacity="0.7904661423294834" transform="matrix(0.962452317999468,-0.2714507977101025,0.2714507977101025,0.962452317999468,203.88135815483116,68.81032421276149)" fill="#2c2891"></use><use xlink:href="#bbburst-shape-4" width="38.34648627140231" opacity="0.043731268565931014" transform="matrix(1.4788103472800902,0.9357456688531018,-0.9357456688531018,1.4788103472800902,985.5085710078101,148.0347159762615)" fill="#00a19d" filter="url(#bbburst-blur-4)"></use><use xlink:href="#bbburst-shape-6" width="15.834896448672396" opacity="0.8066440970790366" transform="matrix(0.8378968985528495,0.545828532962061,-0.545828532962061,0.8378968985528495,543.3911352090798,6.62145340968226)" fill="#ff5c58"></use><use xlink:href="#bbburst-shape-6" width="19.855557124237084" opacity="0.6436127288500497" transform="matrix(0.7465610026487463,0.6653169690636928,-0.6653169690636928,0.7465610026487463,803.8909938836833,162.91619070323264)" fill="#00a19d" filter="url(#bbburst-blur-1)"></use><use xlink:href="#bbburst-shape-6" width="23.665056969806763" opacity="0.5803680109945485" transform="matrix(0.79355691697483,0.608496030818117,-0.608496030818117,0.79355691697483,731.8750019072933,-86.11739322611848)" fill="#00a19d" filter="url(#bbburst-blur-1)"></use><use xlink:href="#bbburst-shape-10" width="34.58509615215059" opacity="0.20697707275883104" transform="matrix(0.9471255599232521,0.8157531328410982,-0.8157531328410982,0.9471255599232521,704.183224681593,363.85747920874604)" fill="none" stroke="#2c2891" filter="url(#bbburst-blur-3)"></use><use xlink:href="#bbburst-shape-6" width="35.22119765537046" opacity="0.517032946836989" transform="matrix(0.9475088412963302,0.31972956645466144,-0.31972956645466144,0.9475088412963302,323.2360756568828,124.46283232936986)" fill="#00a19d" filter="url(#bbburst-blur-2)"></use><use xlink:href="#bbburst-shape-8" width="12.164794505841131" opacity="0.8477550955479816" transform="matrix(0.9447261775712641,0.327860411473524,-0.327860411473524,0.9447261775712641,588.4904267789486,46.81721125148471)" fill="none" stroke="#00a19d"></use><use xlink:href="#bbburst-shape-8" width="42.389196001315334" opacity="0.18330125473452397" transform="matrix(1.2179281472869439,0.28133792500513005,-0.28133792500513005,1.2179281472869439,838.3171419245456,13.858819459490348)" fill="none" stroke="#2c2891" filter="url(#bbburst-blur-3)"></use><use xlink:href="#bbburst-shape-4" width="20.248488665701217" opacity="0.781471802792004" transform="matrix(0.9456963953956601,0.3250512693955452,-0.3250512693955452,0.9456963953956601,522.3065937078934,116.76789232029324)" fill="#ff5c58"></use><use xlink:href="#bbburst-shape-1" width="15.812886762990665" opacity="0.841573415987291" transform="matrix(0.7972508436172056,-0.6036481527774719,0.6036481527774719,0.7972508436172056,221.86568492231706,70.5215626156529)" fill="#00a19d"></use><use xlink:href="#bbburst-shape-4" width="13.537388574949212" opacity="0.8789779955114935" transform="matrix(0.8152500280611729,0.5791091363001079,-0.5791091363001079,0.8152500280611729,577.7334206008577,44.9945642914642)" fill="#ffbd9b"></use><use xlink:href="#bbburst-shape-6" width="23.04643732910094" opacity="0.6739172665771922" transform="matrix(0.9204065171012731,0.3909627134107597,-0.3909627134107597,0.9204065171012731,549.5901137253402,174.0202189135024)" fill="#00a19d" filter="url(#bbburst-blur-1)"></use><use xlink:href="#bbburst-shape-8" width="17.46061231175547" opacity="0.7641601607233313" transform="matrix(0.9811029057449367,-0.19348666191456662,0.19348666191456662,0.9811029057449367,208.70822255125572,22.223050314329612)" fill="none" stroke="#00a19d" filter="url(#bbburst-blur-1)"></use><use xlink:href="#bbburst-shape-10" width="30.504022618683102" opacity="0.5987439277927962" transform="matrix(0.9912364648684552,-0.13209947280397386,0.13209947280397386,0.9912364648684552,178.90001247110797,-90.1426184001939)" fill="none" stroke="#00a19d" filter="url(#bbburst-blur-1)"></use><use xlink:href="#bbburst-shape-4" width="13.137753432535053" opacity="0.8492069767408662" transform="matrix(0.9998110916190834,0.01943659114805721,-0.01943659114805721,0.9998110916190834,436.299753423229,58.037618694987714)" fill="#ffa6d5"></use><use xlink:href="#bbburst-shape-8" width="40.267997171510984" opacity="0.16096457724523106" transform="matrix(1.12659043995019,-0.5415662292027053,0.5415662292027053,1.12659043995019,437.04820031011747,217.5274917409884)" fill="none" stroke="#00a19d" filter="url(#bbburst-blur-3)"></use><use xlink:href="#bbburst-shape-6" width="38.35426021498755" opacity="0.35410214423229835" transform="matrix(0.9857164809855474,-0.16841323912765557,0.16841323912765557,0.9857164809855474,505.95601842581374,226.95617268231086)" fill="#ff5c58" filter="url(#bbburst-blur-2)"></use><use xlink:href="#bbburst-shape-10" width="18.605133920531237" opacity="0.7013076274408422" transform="matrix(0.7797946113648494,0.6260354335709309,-0.6260354335709309,0.7797946113648494,590.2189436899282,-41.287934691493774)" fill="none" stroke="#00a19d" filter="url(#bbburst-blur-1)"></use><use xlink:href="#bbburst-shape-1" width="23.122927280541248" opacity="0.4642280459319801" transform="matrix(0.982519881785951,0.18615768019429377,-0.18615768019429377,0.982519881785951,704.0208884141291,-4.306451489935284)" fill="#ffa6d5" filter="url(#bbburst-blur-2)"></use><use xlink:href="#bbburst-shape-10" width="29.769377860807857" opacity="0.4159917355745314" transform="matrix(0.7585432552908112,-0.6516226897928119,0.6516226897928119,0.7585432552908112,234.4962667311387,346.56749872873525)" fill="none" stroke="#2c2891" filter="url(#bbburst-blur-2)"></use><use xlink:href="#bbburst-shape-6" width="28.54808251886696" opacity="0.6213764293028186" transform="matrix(0.8866824534277659,0.46237887795975047,-0.46237887795975047,0.8866824534277659,741.9445376624142,54.49229701931762)" fill="#2c2891" filter="url(#bbburst-blur-1)"></use><use xlink:href="#bbburst-shape-4" width="52.27484785128277" opacity="0.07651485278321535" transform="matrix(1.6817912320516577,0.4838163409747206,-0.4838163409747206,1.6817912320516577,195.8971338786578,-503.52460345469717)" fill="#ffa6d5" filter="url(#bbburst-blur-4)"></use><use xlink:href="#bbburst-shape-6" width="28.734466071012466" opacity="0.41736316797616546" transform="matrix(0.8113741219872141,0.5845271885630962,-0.5845271885630962,0.8113741219872141,419.1419372527126,-98.8634297745806)" fill="#2c2891" filter="url(#bbburst-blur-2)"></use><use xlink:href="#bbburst-shape-10" width="39.78662415530066" opacity="0.2831275118562666" transform="matrix(1.2338280524269591,-0.20042040076872672,0.20042040076872672,1.2338280524269591,6.06965046004828,-232.44053399281512)" fill="none" stroke="#00a19d" filter="url(#bbburst-blur-3)"></use><use xlink:href="#bbburst-shape-4" width="38.02738664193267" opacity="0.3712301484158804" transform="matrix(0.9507639084762985,0.3099161020967975,-0.3099161020967975,0.9507639084762985,560.6886074210316,-263.7523364990571)" fill="#00a19d" filter="url(#bbburst-blur-2)"></use><use xlink:href="#bbburst-shape-4" width="16.244745994561793" opacity="0.7708649701100804" transform="matrix(0.8449145564255495,-0.5349012921467071,0.5349012921467071,0.8449145564255495,271.1928435565792,19.84752538331935)" fill="#00a19d" filter="url(#bbburst-blur-1)"></use></svg>