<!--?xml version="1.0" standalone="no"?-->
              <svg id="sw-js-blob-svg" viewBox="0 0 100 100" xmlns="http://www.w3.org/2000/svg" version="1.1">
                    <defs> 
                        <linearGradient id="sw-gradient" x1="0" x2="1" y1="1" y2="0">
                            <stop id="stop1" stop-color="rgba(0, 0, 0, 1)" offset="0%"></stop>
                            <stop id="stop2" stop-color="rgba(0, 31.067, 237.156, 1)" offset="100%"></stop>
                        </linearGradient>
                    </defs>
                <path fill="url(#sw-gradient)" d="M26.5,-32.4C32.8,-26.3,35.2,-16.5,34.5,-7.9C33.8,0.6,30,7.9,26.2,15.7C22.3,23.5,18.5,31.8,11.6,36.1C4.8,40.3,-5,40.5,-14.3,37.8C-23.6,35,-32.4,29.4,-37.3,21.3C-42.2,13.3,-43.2,2.7,-40.8,-6.6C-38.4,-15.9,-32.6,-23.9,-25.3,-29.9C-17.9,-35.8,-8.9,-39.7,0.6,-40.4C10.1,-41.1,20.2,-38.6,26.5,-32.4Z" width="100%" height="100%" transform="translate(50 50)" stroke-width="0" style="transition: all 0.3s ease 0s;"></path>
              </svg>