<svg xmlns="http://www.w3.org/2000/svg" version="1.1" xmlns:xlink="http://www.w3.org/1999/xlink" xmlns:svgjs="http://svgjs.dev/svgjs" viewBox="0 0 800 800"><defs><filter id="llleaves-blur-2" x="-100%" y="-100%" width="400%" height="400%"><feGaussianBlur in="SourceGraphic" stdDeviation="2"></feGaussianBlur></filter><filter id="llleaves-blur-3" x="-100%" y="-100%" width="400%" height="400%"><feGaussianBlur in="SourceGraphic" stdDeviation="4"></feGaussianBlur></filter><filter id="llleaves-blur-4" x="-100%" y="-100%" width="400%" height="400%"><feGaussianBlur in="SourceGraphic" stdDeviation="12"></feGaussianBlur></filter></defs><g fill="hsl(231, 100%, 64%)"><path d="M701 322H751C779 322 801 344 801 372H751C723 372 701 350 701 322Z " transform="matrix(-0.2746661818961824,-0.3644943343595785,0.3644943343595785,-0.2746661818961824,830.7947685812593,716.0444102220188)" opacity="0.70"></path><path d="M319 265H369C397 265 419 287 419 315H369C341 315 319 293 319 265Z " transform="matrix(-0.25731713865149514,-0.3814883462940873,0.3814883462940873,-0.25731713865149514,353.3184037371164,505.3911699914518)" opacity="0.71"></path><path d="M433 432H483C511 432 533 454 533 482H483C455 482 433 460 433 432Z " transform="matrix(-0.3092920726037162,-0.3202813169962616,0.3202813169962616,-0.3092920726037162,486.0195092003034,753.0423532890927)" opacity="0.68"></path><path d="M605 358H655C683 358 705 380 705 408H655C627 408 605 386 605 358Z " transform="matrix(-0.31393393965165817,-0.31393393965165806,0.31393393965165806,-0.31393393965165817,740.3900315852511,708.8634293584212)" opacity="0.68"></path><path d="M208 454H258C286 454 308 476 308 504H258C230 504 208 482 208 454Z " transform="matrix(-0.15755991336522157,-0.4575872142809368,0.4575872142809368,-0.15755991336522157,79.46618200765843,672.5286997864229)" opacity="0.74"></path><path d="M223 25H273C301 25 323 47 323 75H273C245 75 223 53 223 25Z " transform="matrix(-0.3851095435305564,-0.09601859336432249,0.09601859336432249,-0.3851095435305564,373.3339757156258,95.46855316498787)" filter="url(#llleaves-blur-2)" opacity="0.61"></path><path d="M609 140H659C687 140 709 162 709 190H659C631 190 609 168 609 140Z " transform="matrix(-0.3048348448302933,-0.3268953493212355,0.3268953493212355,-0.3048348448302933,805.9484301051593,430.72178459969257)" opacity="0.69"></path><path d="M696 221H746C774 221 796 243 796 271H746C718 271 696 249 696 221Z " transform="matrix(-0.27945304702061297,-0.35768358912489273,0.35768358912489273,-0.27945304702061297,866.4818101526537,581.5774070542408)" opacity="0.70"></path><path d="M158 107H208C236 107 258 129 258 157H208C180 157 158 135 158 107Z " transform="matrix(-0.26884028277125993,-0.37002690470072,0.37002690470072,-0.26884028277125993,215.07522739592702,244.45251350355605)" opacity="0.70"></path><path d="M137 530H187C215 530 237 552 237 580H187C159 580 137 558 137 530Z " transform="matrix(-0.08633210151583176,-0.4896136777761272,0.4896136777761272,-0.08633210151583176,-68.59148818229005,694.4720740854224)" opacity="0.76"></path><path d="M1 21H51C79 21 101 43 101 71H51C23 71 1 49 1 21Z " transform="matrix(-0.38254955963579196,-0.13172237683440474,0.13172237683440474,-0.38254955963579196,64.45079820704277,70.31512096180109)" opacity="0.62"></path><path d="M1 115H51C79 115 101 137 101 165H51C23 165 1 143 1 115Z " transform="matrix(-0.1497817654262746,-0.4609808736214907,0.4609808736214907,-0.1497817654262746,-5.898452270268692,184.47947171437448)" opacity="0.74"></path><path d="M516 98H566C594 98 616 120 616 148H566C538 148 516 126 516 98Z " transform="matrix(-0.34096439092975084,-0.2663905777840314,0.2663905777840314,-0.34096439092975084,726.2198041988031,315.71568711012117)" opacity="0.66"></path><path d="M704 120H754C782 120 804 142 804 170H754C726 170 704 148 704 120Z " transform="matrix(-0.22076186882679924,-0.4151926892418768,0.4151926892418768,-0.22076186882679924,860.2515091553345,490.06575866826097)" opacity="0.72"></path><path d="M478 665H528C556 665 578 687 578 715H528C500 715 478 693 478 665Z " transform="matrix(-0.32275009843507246,-0.3009693358431203,0.3009693358431203,-0.32275009843507246,490.74321024196524,1071.6093772453673)" opacity="0.68"></path><path d="M255 542H305C333 542 355 564 355 592H305C277 592 255 570 255 542Z " transform="matrix(-0.2075607006908278,-0.4255625019872943,0.4255625019872943,-0.2075607006908278,127.01207508390664,814.483480397824)" opacity="0.73"></path><path d="M9 524H59C87 524 109 546 109 574H59C31 574 9 552 9 524Z " transform="matrix(0.01797817740597198,-0.5148276417625998,0.5148276417625998,0.01797817740597198,-224.70108779461958,569.5048114681148)" opacity="0.79"></path><path d="M422 249H472C500 249 522 271 522 299H472C444 299 422 277 422 249Z " transform="matrix(-0.3092920726037162,-0.3202813169962616,0.3202813169962616,-0.3092920726037162,530.2287774119784,509.9188095156537)" opacity="0.68"></path><path d="M511 204H561C589 204 611 226 611 254H561C533 254 511 232 511 204Z " transform="matrix(-0.321932046706883,-0.30020649026534263,0.30020649026534263,-0.321932046706883,672.8565919317979,471.1382797347334)" opacity="0.68"></path><path d="M270 369H320C348 369 370 391 370 419H320C292 419 270 397 270 369Z " transform="matrix(-0.22066175697493953,-0.4150044062325894,0.4150044062325894,-0.22066175697493953,227.10002617634044,613.7421422425548)" opacity="0.72"></path><path d="M240 723H290C318 723 340 745 340 773H290C262 773 240 751 240 723Z " transform="matrix(-0.1863696796899162,-0.439059450815304,0.439059450815304,-0.1863696796899162,15.630737900228326,1014.7317611444955)" opacity="0.73"></path><path d="M421 125H471C499 125 521 147 521 175H471C443 175 421 153 421 125Z " transform="matrix(-0.33447316390772197,-0.2806563084736674,0.2806563084736674,-0.33447316390772197,586.438413929487,332.3600958772557)" opacity="0.67"></path><path d="M417 733H467C495 733 517 755 517 783H467C439 783 417 761 417 733Z " transform="matrix(-0.30494121468426166,-0.3270094170243211,0.3270094170243211,-0.30494121468426166,361.5344091531148,1141.8588384810282)" opacity="0.69"></path><path d="M690 24H740C768 24 790 46 790 74H740C712 74 690 52 690 24Z " transform="matrix(-0.17932769903838905,-0.44385163034331054,0.44385163034331054,-0.17932769903838905,850.9537674015857,386.2372637069309)" opacity="0.74"></path><path d="M323 460H373C401 460 423 482 423 510H373C345 510 323 488 323 460Z " transform="matrix(-0.25731713865149514,-0.3814883462940873,0.3814883462940873,-0.25731713865149514,283.9574447643754,752.0939654136698)" opacity="0.71"></path><path d="M593 260H643C671 260 693 282 693 310H643C615 310 593 288 593 260Z " transform="matrix(-0.31840998988487895,-0.3074849530182617,0.3074849530182617,-0.31840998988487895,760.1044118857726,573.4596719079327)" opacity="0.68"></path><path d="M376 355H426C454 355 476 377 476 405H426C398 405 376 383 376 355Z " transform="matrix(-0.2903337441754962,-0.3460062826724757,0.3460062826724757,-0.2903337441754962,418.1997876032206,637.7254992051633)" opacity="0.69"></path><path d="M157 362H207C235 362 257 384 257 412H207C179 412 157 390 157 362Z " transform="matrix(-0.10271023864389431,-0.48321368127578157,0.48321368127578157,-0.10271023864389431,41.25732474555866,526.774094379274)" opacity="0.76"></path><path d="M642 623H692C720 623 742 645 742 673H692C664 673 642 651 642 623Z " transform="matrix(-0.30508967917263385,-0.3271686256962013,0.3271686256962013,-0.30508967917263385,691.1167885363243,1072.0988010856381)" opacity="0.69"></path><path d="M299 625H349C377 625 399 647 399 675H349C321 675 299 653 299 625Z " transform="matrix(-0.23331363122737678,-0.4041110633842047,0.4041110633842047,-0.23331363122737678,167.7542660986214,942.6886214188825)" opacity="0.72"></path><path d="M224 275H274C302 275 324 297 324 325H274C246 325 224 303 224 275Z " transform="matrix(-0.1721875211914632,-0.4485638285326124,0.4485638285326124,-0.1721875211914632,186.6102322466772,474.5627453753748)" opacity="0.74"></path><path d="M331 36H381C409 36 431 58 431 86H381C353 86 331 64 331 36Z " transform="matrix(-0.38162430564288463,-0.13140378633534022,0.13140378633534022,-0.38162430564288463,518.3832294834832,134.34392523798059)" opacity="0.62"></path><path d="M89 615H139C167 615 189 637 189 665H139C111 665 89 643 89 615Z " transform="matrix(-0.03527706809846801,-0.5044855773914882,0.5044855773914882,-0.03527706809846801,-178.9672570648654,732.7008188404365)" opacity="0.78"></path></g><g fill="none" stroke-width="3" stroke="hsl(231, 100%, 64%)"><path d="M600 523H650C678 523 700 545 700 573H650C622 573 600 551 600 523Z " transform="matrix(-0.31840998988487895,-0.3074849530182617,0.3074849530182617,-0.31840998988487895,688.464739171164,922.3538939187838)" opacity="0.68"></path><path d="M-4 424H46C74 424 96 446 96 474H46C18 474 -4 452 -4 424Z " transform="matrix(0.01801002473257748,-0.5157396298736585,0.5157396298736585,0.01801002473257748,-186.39555495097125,464.63752186926104)" opacity="0.79"></path><path d="M92 291H142C170 291 192 313 192 341H142C114 341 92 319 92 291Z " transform="matrix(-0.03527706809846801,-0.5044855773914882,0.5044855773914882,-0.03527706809846801,-12.408098785727844,398.78450550870724)" opacity="0.78"></path><path d="M446 19H496C524 19 546 41 546 69H496C468 69 446 47 446 19Z " transform="matrix(-0.3803931848510856,-0.14601926283691058,0.14601926283691058,-0.3803931848510856,678.2501721213143,133.1628545005554)" opacity="0.63"></path><path d="M70 719H120C148 719 170 741 170 769H120C92 769 70 747 70 719Z " transform="matrix(-0.026595279353044357,-0.5074681605837507,0.5074681605837507,-0.026595279353044357,-254.36487795194518,824.6830671087151)" opacity="0.78"></path><path d="M716 619H766C794 619 816 641 816 669H766C738 669 716 647 716 619Z " transform="matrix(-0.2746661818961824,-0.3644943343595785,0.3644943343595785,-0.2746661818961824,741.6599440049072,1100.0876812605786)" opacity="0.70"></path><path d="M518 735H568C596 735 618 757 618 785H568C540 785 518 763 518 735Z " transform="matrix(-0.32185900037904025,-0.3001383734626423,0.3001383734626423,-0.32185900037904025,522.7107483836867,1175.0914364148514)" opacity="0.68"></path><path d="M393 636H443C471 636 493 658 493 686H443C415 686 393 664 393 636Z " transform="matrix(-0.2947540872446478,-0.3390757898655077,0.3390757898655077,-0.2947540872446478,349.4469635482784,1006.043026579132)" opacity="0.69"></path><path d="M-5 624H45C73 624 95 646 95 674H45C17 674 -5 652 -5 624Z " transform="matrix(0.01801002473257748,-0.5157396298736585,0.5157396298736585,0.01801002473257748,-290.5254709009704,660.5197772928718)" opacity="0.79"></path><path d="M327 725H377C405 725 427 747 427 775H377C349 775 327 753 327 725Z " transform="matrix(-0.25731713865149514,-0.3814883462940873,0.3814883462940873,-0.25731713865149514,187.89230155104818,1086.8089605414923)" opacity="0.71"></path><path d="M-3 225H47C75 225 97 247 97 275H47C19 275 -3 253 -3 225Z " transform="matrix(0.01801002473257748,-0.5157396298736585,0.5157396298736585,0.01801002473257748,-82.78137863084578,269.7372564209176)" opacity="0.79"></path><path d="M690 425H740C768 425 790 447 790 475H740C712 475 690 453 690 425Z " transform="matrix(-0.27945304702061297,-0.35768358912489273,0.35768358912489273,-0.27945304702061297,785.8376396890518,840.4397271116964)" opacity="0.70"></path><path d="M491 500H541C569 500 591 522 591 550H541C513 550 491 528 491 500Z " transform="matrix(-0.32222896914379884,-0.3004833749171794,0.3004833749171794,-0.32222896914379884,557.572100475276,856.7317146306884)" opacity="0.68"></path><path d="M493 333H543C571 333 593 355 593 383H543C515 383 493 361 493 333Z " transform="matrix(-0.32222896914379884,-0.3004833749171794,0.3004833749171794,-0.32222896914379884,610.3972820247325,636.5204435335083)" opacity="0.68"></path><path d="M79 167H129C157 167 179 189 179 217H129C101 217 79 195 79 167Z " transform="matrix(-0.026595279353044357,-0.5074681605837507,0.5074681605837507,-0.026595279353044357,34.996904204462595,262.5696863510883)" opacity="0.78"></path><path d="M701 519H751C779 519 801 541 801 569H751C723 569 701 547 701 519Z " transform="matrix(-0.2746661818961824,-0.3644943343595785,0.3644943343595785,-0.2746661818961824,758.9893847124223,967.1536480555667)" opacity="0.70"></path><path d="M191 627H241C269 627 291 649 291 677H241C213 677 191 655 191 627Z " transform="matrix(-0.13434064309568108,-0.4685014991267552,0.4685014991267552,-0.13434064309568108,-32.08688244458523,852.4989605879321)" opacity="0.75"></path><path d="M164 212H214C242 212 264 234 264 262H214C186 262 164 240 164 212Z " transform="matrix(-0.10271023864389431,-0.48321368127578157,0.48321368127578157,-0.10271023864389431,121.45834860743315,364.7500543516202)" opacity="0.76"></path><path d="M342 164H392C420 164 442 186 442 214H392C364 214 342 192 342 164Z " transform="matrix(-0.26870116509802855,-0.3698354256504663,0.3698354256504663,-0.26870116509802855,427.43196127048907,384.76000705851015)" opacity="0.70"></path><path d="M555 431H605C633 431 655 453 655 481H605C577 481 555 459 555 431Z " transform="matrix(-0.3223729567069561,-0.30061764549203973,0.30061764549203973,-0.3223729567069561,662.9539924633383,784.875743781056)" opacity="0.68"></path><path d="M489 579H539C567 579 589 601 589 629H539C511 629 489 607 489 579Z " transform="matrix(-0.32222896914379884,-0.3004833749171794,0.3004833749171794,-0.32222896914379884,531.1894559185312,960.5868364432142)" opacity="0.68"></path><path d="M383 540H433C461 540 483 562 483 590H433C405 590 383 568 383 540Z " transform="matrix(-0.2903337441754962,-0.3460062826724757,0.3460062826724757,-0.2903337441754962,363.22096151804107,878.8592858563372)" opacity="0.69"></path><path d="M-10 726H40C68 726 90 748 90 776H40C12 776 -10 754 -10 726Z " transform="matrix(0.01801002473257748,-0.5157396298736585,0.5157396298736585,0.01801002473257748,-348.0408630244207,758.1040566207806)" opacity="0.79"></path><path d="M577 22H627C655 22 677 44 677 72H627C599 72 577 50 577 22Z " transform="matrix(-0.3268455092386011,-0.2942930183790235,0.2942930183790235,-0.3268455092386011,818.1003624287888,246.88346145786198)" opacity="0.68"></path><path d="M152 724H202C230 724 252 746 252 774H202C174 774 152 752 152 724Z " transform="matrix(-0.10271023864389431,-0.48321368127578157,0.48321368127578157,-0.10271023864389431,-139.17957906949374,923.5391323619847)" opacity="0.76"></path><path d="M564 633H614C642 633 664 655 664 683H614C586 683 564 661 564 633Z " transform="matrix(-0.3223729567069561,-0.30061764549203973,0.30061764549203973,-0.3223729567069561,614.1305846843089,1054.7006398452895)" opacity="0.68"></path><path d="M3 329H53C81 329 103 351 103 379H53C25 379 3 357 3 329Z " transform="matrix(0.01797817740597198,-0.5148276417625998,0.5148276417625998,0.01797817740597198,-130.2018285864768,374.9215902117037)" opacity="0.79"></path><path d="M704 723H754C782 723 804 745 804 773H754C726 773 704 751 704 723Z " transform="matrix(-0.2746661818961824,-0.3644943343595785,0.3644943343595785,-0.2746661818961824,688.4565390487568,1228.2790321654668)" opacity="0.70"></path><path d="M611 727H661C689 727 711 749 711 777H661C633 777 611 755 611 727Z " transform="matrix(-0.31393393965165817,-0.31393393965165806,0.31393393965165806,-0.31393393965165817,632.4320114916991,1195.588656727793)" opacity="0.68"></path><path d="M91 436H141C169 436 191 458 191 486H141C113 486 91 464 91 436Z " transform="matrix(-0.03527706809846801,-0.5044855773914882,0.5044855773914882,-0.03527706809846801,-86.59378457559208,548.3951948055936)" opacity="0.78"></path><path d="M253 145H303C331 145 353 167 353 195H303C275 195 253 173 253 145Z " transform="matrix(-0.2330755001894386,-0.40369860832763665,0.40369860832763665,-0.2330755001894386,304.99311314170166,331.94351335547844)" opacity="0.72"></path><path d="M104 27H154C182 27 204 49 204 77H154C126 77 104 55 104 27Z " transform="matrix(-0.3732257085724305,-0.18203434096135915,0.18203434096135915,-0.3732257085724305,202.0109733901636,99.4410253538157)" opacity="0.64"></path></g></svg>