<svg xmlns="http://www.w3.org/2000/svg" version="1.1" xmlns:xlink="http://www.w3.org/1999/xlink" xmlns:svgjs="http://svgjs.dev/svgjs" viewBox="0 0 800 800" opacity="1"><defs><linearGradient x1="50%" y1="0%" x2="50%" y2="100%" id="ssscribble-grad"><stop stop-color="hsl(265, 55%, 30%)" stop-opacity="1" offset="0%"></stop><stop stop-color="hsl(265, 55%, 60%)" stop-opacity="1" offset="100%"></stop></linearGradient></defs><g fill="none" stroke-width="1.5" stroke="url(#ssscribble-grad)" stroke-linecap="round"><path d="M984.09 370.51C1073.27 403.37 1099.59 408.96 1059.67 391.98 967.64 380.31 847.8 361.48 730.74 359.51 638.31 398.66 586.86 491.29 577.49 641.66 607.52 800.88 659.97 926.51 717.97 945.9 778.41 847.46 822.07 681.33 844.38 573.59 851.8 634.71 838.89 842.74 811.62 1039.67 774.94 1045.96 732.41 852.9 689.89 660.26 645.14 695.25 604.99 931.85 572.13 1100.49 539.26 993.81 515.25 744.46 498.03 641.41 478.58 786.81 461.33 1003.57 441.06 1061.69 411.38 908.3 370.18 684.02 312.11 568.22 239.16 625.37 148.32 782.46 44.81 911.03 -56.25 941.4 -147.66 854.31 -211.91 708.81 -236.76 547.86 -214.77 429.35 -146.43 362.46 -53.46 336.17 47.67 335.98 127.02 337.44 154.25 346.99 121.27 338.76 32.09 305.91 -89.75 273.05 -201.66 217.12 -271.59 145.6 -286.18 82.16 -239.18 22.56 -146.95 -8.09 -29.96 1.82 85.6 66.2 179.2 176.5 241.24 271.37 266.93 311.31 263.06 237.9 232.88 66.27 192.66 -129.78 154.19 -221.17 100.76 -42.22 75.72 -15.38 99.32 -291.22 120.97 -200.91 149.13 41.76 181.99 148.51 214.85 -20.06 250.86 -250.03 291.18 -272.4 333.86 -67.11 385.02 144.67 447.14 162.52 515 -10.29 595.64 -188.88 686.46 -215.81 775.57 -73.88 862.97 131.19 936.22 272.73 983.16 296.43 996.43 218 968.6 109.43 909.22 9.7 823.13 -28.82 730.23 -11.04 662.08 47.85 633.78 126.45 661.06 200.1 743.66 279.05 862.24 337.64 984.09 370.51Q984.09 370.51 984.09 370.51" opacity="0.10"></path><path d="M950.09 178.77C1034.65 209.29 1065.59 234.81 1038.84 263.07 964.11 301.29 858.5 360.16 746.55 452.12 646.58 562.95 575.68 697.49 539.59 824.78 539.07 896.39 565.25 887.04 605.79 782.86 658.47 644.3 705.89 540.6 740.76 562.14 774.41 823.45 753.96 850.76 716.03 610.01 686.55 687.27 655.48 916.08 624.96 1066.49 594.45 975.64 565.94 743.35 537.88 607.35 507.56 689.38 473.45 893.98 431.87 1024.95 382.99 975.81 321.66 786.12 246.51 600.01 164.62 524.58 73.39 586.94 -19.28 716.6 -99.81 844.26 -162.17 893.43 -193.42 858.36 -189.1 757.1 -145.56 630.17 -67.97 513.82 21.61 406.64 109.85 330.73 172.81 279.25 187.78 237.01 150.65 204.07 66.09 173.55 -46.73 143.04 -152.83 116.4 -225.66 101.09 -253.58 95.02 -227.46 115.41 -157.27 169.7 -57.46 233.16 51.97 309.85 152.24 364.1 233.89 352.16 287.37 259.21 313.56 91.56 314.03 -78.08 297.9 -176.65 274.9 -133.02 243.1 21.29 216.57 183.63 200.06 210.44 182.97 -53.84 210.89 -21.45 251.7 182.51 282.21 32.16 321.21 -190.48 368.55 -256.02 417.09 -106.08 475.76 116.39 544.15 219.72 613.53 135.25 690.31 -45.21 769.14 -170.85 839.18 -160.65 899.11 -20.79 938.64 157.75 952.44 301.94 935.14 355.12 885.26 330.56 816.76 250.31 734.69 166.02 657.24 108.06 609.42 68.98 600.67 65.6 640.37 84.92 724.97 114.2 837.26 148.26 950.09 178.77Q950.09 178.77 950.09 178.77" opacity="0.26"></path><path d="M916.09 275.05C995.72 303.22 1030.2 350.65 1015.24 418.01 957.33 487.77 867.74 578.07 765.38 679.82 664.8 765.31 581.95 829.37 525.05 842.49 496.69 798.14 494.58 696.24 511.1 571.1 544.85 495.15 582.49 510.72 616.17 641.3 662.15 900.6 688.38 745.58 671.73 573.06 655.87 683.43 633.31 899.78 605.14 1032.49 576.97 956.53 544.53 744.85 507.28 586.73 468.42 606.29 421.96 772.49 366.52 940.49 307.26 991.18 237.78 886.83 159.94 705.61 82.84 543.08 4.76 480.52 -65.89 519.36 -119.32 629.08 -150.61 741.32 -151.58 811.24 -124.01 832.07 -66.42 797.01 13.51 730.76 95.23 641.39 168.78 554.88 215.82 484.58 219.91 414.19 179.72 364.18 100.09 336.01 -3.7 307.84 -103.3 302.83 -177.15 320.1 -215.64 337.28 -208.23 372.55 -160.08 413.11 -80.87 430.56 15.45 419.25 113.07 355.03 203.82 241.72 276.21 89.04 327.04 -57.6 356.94 -133.38 368.52 -104.24 368.25 28.94 355.92 180.83 341.7 259.96 331.21 188.66 315.58 -91.09 332.84 37.49 369.3 216.51 397.47 83.86 435.88 -126.79 483.32 -226.34 530.76 -136.81 586.78 66.84 648.83 227.16 708.14 242.68 768.74 121.37 824.49 -35.31 868.17 -136.57 897.03 -118.76 904.04 -5.9 890.13 156.15 851.13 298.49 789.71 386.25 721.42 416.55 650.35 398.87 591.79 362.2 564.29 309.26 572.91 270.2 622.27 253.55 706.98 239.32 812.29 246.88 916.09 275.05Q916.09 275.05 916.09 275.05" opacity="0.51"></path><path d="M882.09 533.99C956.5 559.81 993.41 601.53 988.73 653.58 946.73 700 874.07 744.34 784.76 771.18 689.74 772.5 602.66 736.99 532.45 660.6 482.27 572.57 454.42 485.02 445.45 440.67 454.37 475.57 472.89 593.22 494.25 763.5 521.55 907.94 543.83 960.02 557.82 879.3 571.48 717.06 575.18 570.09 568.62 549.6 561.39 682.94 544.87 882.84 519.05 998.49 493.23 936.38 459.34 748 417.87 578.8 375.74 542.71 325.07 653.15 266.66 819.94 207.93 941.14 143.13 938.61 76.04 825.72 14.88 656.87 -40.69 512.61 -83.45 439.31 -108.33 445.76 -111.09 510.69 -87.79 593.64 -44.47 680.09 19.45 734.75 95.54 753.98 165.93 749.64 223.89 722.5 255.93 686.93 250.64 644.68 208.5 607.58 134.09 581.76 39.31 555.93 -53.16 542.62 -126.24 536.17 -172.48 523.05 -181.02 503.24 -153.67 462.84 -96.61 398.87 -18.4 301.7 68.61 175.47 158.03 52.72 238.73 -49.29 305.23 -89.6 357.87 -50.17 394.31 63.46 417.62 205.43 429.22 291.46 434.24 270.87 437.55 130.77 436.15 -54.95 438.32 -180.1 446.97 -154.03 454.76 5.17 470.96 188.33 496.78 250.5 522.6 134.91 556.81 -59.76 597.72 -183.17 637.76 -152.76 682.56 8.88 728.7 190.05 770.15 289.72 807.64 260.81 835.84 143.26 852.32 -0.13 852.95 -87.17 834.15 -88.24 801.49 -10.05 751.41 114.55 688.87 242.38 628.73 358.56 573.68 436.6 535.55 480.03 527.12 497.93 550.35 500.55 606.56 502.83 689.6 499.48 787.31 508.17 882.09 533.99Q882.09 533.99 882.09 533.99" opacity="0.89"></path><path d="M848.12 618.47C936.13 650.39 903.91 657.91 802.1 608.37 717.68 560.46 633.55 495.96 558.13 430.76 494.26 395.44 446.87 400.27 415.66 465.34 399.65 581.93 395.37 730.33 398.07 862.03 408.99 921.14 420.28 880.92 428.14 750.02 438.21 600.58 441.59 508.31 436.6 539.08 431.79 684.89 418.02 865.15 394.55 964.5 371.08 915.1 339.02 751.81 299.55 582.06 260.28 501.87 214.2 549.74 163.46 682.87 114.92 831.35 64.97 911.77 17.88 894.57 -20.99 791.68 -50.41 647.97 -65.16 515.28 -64.71 419.42 -45.16 381.58 -5.73 390.42 45.24 436.69 108.32 493.72 175.54 542.43 253.46 603.6 258.51 620.23 168.12 590.85 82.35 567.38 -2.48 533.35 -73.15 486.54 -124.33 435.69 -145.65 366.2 -136.78 277.75 -101.6 188.36 -44.28 92.67 26.32 10.22 105.48 -34.78 183.96 -30.64 255.61 34.45 320.76 136.38 374.23 252.26 416.2 330.71 449.35 323.46 474.08 221.99 493.49 56.31 508.11 -94.02 521.79 -155.25 537.16 -84.11 551.33 76.57 569.59 235.1 593.06 284.5 616.53 185.15 644.1 9.64 674.2 -127.1 703.09 -148.81 732.12 -43.19 758.18 123.46 779.45 271.56 793.37 332.83 796.4 298.15 790.61 190.9 770.85 70.33 736.46 -15.49 695.58 -49.79 644.92 -20.93 590.2 50.56 544.03 151.94 507.75 255.09 489.78 343.68 498.1 425.14 532.77 485.35 593.01 528.27 672.72 566.05 762.32 594.99 848.09 618.46Q848.12 618.47 848.12 618.47" opacity="0.42"></path><path d="M813.75 418.38C896.27 441.15 892.45 404.56 815.35 359.78 745.16 339.96 669.98 331.31 596.95 349.16 528.23 400.8 469.64 490.31 422.89 611.24 374.16 784.35 333.52 800.89 326.9 612.57 326.06 503.13 322.49 469.3 314.13 540 306.47 688.15 292.55 846.46 271.42 930.39 250.3 892.47 222.97 755.11 190.79 594.21 159.31 484.47 124.45 473.4 88.69 552.35 56.23 684.69 26.37 805.22 2.69 869 -13.15 862 -18.3 788.01 -9.85 677.87 9.21 552.97 42.74 446.85 89.48 372.99 140.5 329.28 196.74 315.77 251.44 319.4 307.05 347.33 286.41 374.37 201.75 351.33 124.9 330.22 48.14 292.81 -18.56 242.05 -71.85 193.32 -102.39 136.6 -108.71 81.19 -93.37 40.95 -57.25 19.66 -6.2 30.79 56.37 72.09 123.9 147.87 190.69 245.08 257.09 327.54 317.06 376.51 368.88 361.53 415.85 275.78 454.98 136.32 487.39 -11.51 516.25 -105.96 541.1 -106.95 563.52 -5.4 584.87 147.33 605.81 280.43 626.94 318.4 648.06 234.52 668.37 80.49 686.86 -59.52 704.27 -122.1 717.86 -76.28 725.61 48.63 729.81 202.13 725.47 321.72 711.06 373.08 691.79 349.85 662.15 272.95 623.44 178.5 584.34 85.25 541.86 26.07 501.27 6.98 472.22 21.69 455.05 65.13 455.19 121.56 476.99 190.09 519.55 254.24 581 306.43 655.86 359.29 736.9 397.25 813.75 418.38Q813.75 418.38 813.75 418.38" opacity="0.83"></path><path d="M780.11 194.39C837.14 213.17 874.94 225.45 891.07 234.34 887.12 246.91 862.45 263.32 821.25 290.8 767.15 331.2 705.16 391.6 640.85 474.34 575.63 566.45 514.94 667.83 461.4 760.85 413.53 821.85 374.06 838.82 342.38 798.65 316.44 713.26 295.95 598.26 278.98 490.52 265.09 435.34 251.97 454.04 237.98 550.69 224.81 692.11 209.18 827.05 190.4 896.51 171.62 868.71 150.59 757.15 128.35 612.78 106.92 489.18 85.88 431.41 67.23 450.48 51.65 535.25 41.22 647.56 38.22 748.18 40.96 816.77 53.47 831.63 76.73 797.93 105.66 725.16 144.08 632.78 189.76 540.03 234.52 448.74 279.67 375.4 320 321.39 347.43 278.48 361.42 249.41 358.12 228.17 334.75 210.72 293.14 194.04 236.11 175.26 168.22 156.48 99.89 136.49 38.33 118.53 -14.71 104.36 -51.21 99.27 -69.24 109.64 -70.75 131.1 -54.4 173.53 -23.62 235.88 19 299.68 69.68 365.1 123.85 413.26 181.65 422.35 237.77 385.23 289.62 297.09 340.32 176.91 385.31 47.77 424.12 -50.76 461.16 -83.59 492.97 -36.52 519.9 79.83 546.17 216.96 568.73 324.71 587.5 352.51 606.28 283.05 620.4 151.91 629.54 17.74 638.03 -71.65 640.39 -79.67 635.89 -10.73 629.62 110.76 615.55 242.61 593.8 347.55 570.89 407.27 541.73 412.56 508.53 376.18 478.97 307.76 450.55 233.35 427.47 170.17 416.25 116.37 416.73 86.9 432 79.04 463.78 84.11 510.97 101.86 571.25 124.69 640.05 151.22 712.19 175.61 780.08 194.38Q780.11 194.39 780.11 194.39" opacity="0.65"></path><path d="M746.08 238.06C835.26 270.93 858.31 344.27 818.96 464.04 734 589.02 625.49 728.2 521.59 793.52 423.84 732.06 347.97 553.59 293.33 403.47 246.96 457.95 209.6 693.91 176.74 862.5 131.26 632.04 118.03 582.82 185.01 775.46 245.84 760.13 319.49 649.33 380.36 531.07 395.63 405.8 359.26 324.45 270.08 291.59 148.23 258.73 42.12 277.47 -18.84 345.79 -34.23 407.1 2.91 466.62 71.16 438.87 160.56 294.5 250.54 76.97 325.26 -46.26 399.23 45.65 454.69 279.75 487.55 386.5 520.41 217.91 527.57 -4.72 510.54 -35.11 492.77 139.09 454.07 352.4 407.74 456.94 382.57 434.68 380.26 346.79 419.74 278.76 504.8 215.94 624.23 205.2 746.08 238.06Q746.08 238.06 746.08 238.06" opacity="0.18"></path><path d="M712.12 492.5C791.74 520.66 823 587.55 806.65 669.46 753.41 725.83 674.13 740.99 589.39 670.13 500.27 546.51 422.61 406.15 362.54 363.76 306.04 481.2 263.35 695.8 235.19 828.5 207.02 752.54 196.04 543.23 203.73 383.97 214.98 370.14 248.69 480.97 300.9 609.35 373.42 720.19 405.07 606.49 304.12 549.13 200.32 520.96 105.89 525.69 41.57 538.66 6.01 522.32 10.76 458.87 44.74 320.86 99.2 155.57 162.97 14.86 221.41 8.02 282.87 146.6 331.08 344.49 359.25 420.51 390.15 186.25 360.7 135.96 333.25 381.62 336.18 489.41 361.3 518.2 417.5 510.65 502.45 477.55 608.29 464.32 712.09 492.49Q712.12 492.5 712.12 492.5" opacity="0.40"></path><path d="M678.12 626.54C747 650.01 782.26 666.68 783.38 660.82 757.82 636.72 708.86 567.24 649.82 459.48 582.02 369.58 517.28 322.09 463.94 373.2 410.65 516.91 370.34 695.16 346.87 794.5 323.39 745.1 318.98 583.93 331.6 420.35 344.27 325.58 372.37 331.55 409.41 398.13 437.68 500.64 461.75 580.34 470.1 618.11 451.78 641.66 407 635.89 338.12 612.42 252.35 588.95 171.94 550 110.52 485.77 64.73 407.32 46.92 290.99 52.89 157.73 74.19 60.37 108.28 29.5 144.9 107.04 185.53 253.4 220.67 405.06 244.14 454.51 267.62 355.21 277.2 186.47 277.25 59.93 281.31 26 283.84 98.39 293.3 219.05 318.09 357.58 360.8 463.7 423.78 528.47 502.4 575.01 592.32 603.06 678.09 626.53Q678.12 626.54 678.12 626.54" opacity="0.31"></path><path d="M643.95 465.57C701.02 484.35 736.22 472.19 748.72 432.84 744.34 394.7 722 339.34 689.12 290.87 647.87 281.42 604.52 321.53 566.12 422.78 526.18 557.68 494.66 690.95 475.88 760.45 457.1 732.7 452.85 622.56 460.24 486.54 466.1 363.22 480.14 291.22 496.78 271.48 505.05 294.42 507.48 335.2 498.1 367.54 471.83 405.01 429.02 417.86 371.95 399.08 304.05 380.31 239.31 331.67 185.95 261.66 124.71 161.74 99.59 100.32 120.43 235.91 139.76 358.17 160.65 460.7 179.43 488.45 198.21 418.95 213.1 293.29 226.31 172.16 242.6 84.67 262.73 64.47 290.44 98.54 327.08 171.62 376.15 256.28 436.57 326.97 503.7 398.86 576.05 446.8 643.95 465.57Q643.95 465.57 643.95 465.57" opacity="0.77"></path><path d="M610.12 219.26C689.74 247.42 714.5 233.28 696.63 264.59 656.97 382.87 608.25 593.8 580.09 726.5 551.92 650.52 549.63 446.05 552.38 300.59 533.34 227 485.74 215.13 406.12 186.97 302.31 158.8 218.26 119.67 177.16 156.34 150.69 264.88 157.7 446.52 185.87 522.5 214.04 389.8 258.02 201.71 321.41 120.34 399.43 125.94 506.31 191.09 610.12 219.26Q610.12 219.26 610.12 219.26" opacity="0.47"></path><path d="M576.09 208.2C673.58 245.76 663.85 486.39 626.3 692.49 588.74 551.74 537.58 289.71 440.09 252.15 300.29 214.6 223.93 415.74 261.49 556.49 299.04 350.39 436.29 170.65 576.09 208.2Q576.09 208.2 576.09 208.2" opacity="0.24"></path></g></svg>