<svg xmlns="http://www.w3.org/2000/svg" version="1.1" xmlns:xlink="http://www.w3.org/1999/xlink" viewBox="0 0 700 700" style="overflow: hidden; display: block;" width="700" height="700"><defs><linearGradient id="two-7" x1="350" y1="-350" x2="350" y2="350" spreadMethod="pad" gradientUnits="userSpaceOnUse"><stop offset="0%" stop-color="hsl(265, 55%, 30%)" stop-opacity="1"></stop><stop offset="100%" stop-color="hsl(265, 55%, 60%)" stop-opacity="1"></stop></linearGradient></defs><g id="two-0" transform="matrix(1 0 0 1 0 0)" opacity="1"><path transform="matrix(1 0 0 1 350 350)" id="two-11" d="M 251.335602 73.798791 C 245.676037 105.400887 174.105538 73.774569 158.107875 101.609761 C 139.120234 134.647373 196.06232 177.284718 185.289537 213.835525 C 177.424278 240.521437 151.924413 269.881864 124.177663 271.911153 C 86.056757 274.699169 67.471652 200.800841 29.501381 205.186616 C -5.217673 209.196857 -6.714122 291.687828 -40.879986 284.326542 C -79.991092 275.899767 -47.71088 195.854019 -76.993285 168.591775 C -91.233794 155.333703 -114.956135 156.099745 -134.386787 155.090618 C -178.748904 152.786681 -249.36927 212.542955 -267.910035 172.175324 C -296.424094 110.093477 -96.377361 99.482798 -114.176782 33.525327 C -128.222422 -18.522144 -244.193269 44.878867 -274.061422 0 C -288.243637 -21.309713 -276.767329 -57.339189 -259.43641 -76.177404 C -236.664741 -100.929559 -178.371832 -74.681902 -161.290292 -103.654977 C -141.746138 -136.805045 -205.067687 -182.570627 -188.147413 -217.133689 C -176.402637 -241.124754 -141.202695 -249.991267 -114.501076 -250.722382 C -85.051149 -251.528749 -53.198789 -237.960958 -31.36909 -218.176807 C -5.020229 -194.296961 -17.852072 -125.34924 17.565582 -122.171311 C 69.483917 -117.512822 61.175118 -244.725304 113.206075 -247.886728 C 138.587244 -249.428899 144.333128 -204.29837 166.942027 -192.66137 C 198.798864 -176.264376 258.545651 -208.45667 274.2692 -176.262113 C 293.28635 -137.323788 235.569365 -96.752789 210.102483 -61.691656 C 193.813629 -39.26623 150.606726 -27.603958 153.106332 -0.000001 C 156.762794 40.379488 258.482969 33.889043 251.335602 73.798791 Z " fill="hsl(205, 69%, 50%)" stroke="undefined" stroke-width="1" stroke-opacity="1" fill-opacity="1" visibility="visible" stroke-linecap="butt" stroke-linejoin="miter" stroke-miterlimit="4"></path></g></svg>